<?xml version="1.0" standalone="no"?>
<!DOCTYPE svg PUBLIC "-//W3C//DTD SVG 20010904//EN"
 "http://www.w3.org/TR/2001/REC-SVG-20010904/DTD/svg10.dtd">
<svg version="1.0" xmlns="http://www.w3.org/2000/svg"
 width="512.000000pt" height="512.000000pt" viewBox="0 0 512.000000 512.000000"
 preserveAspectRatio="xMidYMid meet">
<metadata>
Created by potrace 1.14, written by Peter Selinger 2001-2017
</metadata>
<g transform="translate(0.000000,512.000000) scale(0.100000,-0.100000)"
fill="#000000" stroke="none">
<path d="M2356 4960 c-443 -40 -878 -208 -1241 -479 -131 -98 -380 -349 -475
-478 -314 -429 -473 -912 -474 -1433 0 -202 11 -305 54 -510 129 -617 503
-1157 1045 -1511 312 -203 677 -329 1069 -369 161 -17 454 -8 621 19 730 118
1379 584 1728 1242 141 265 222 522 263 829 22 174 15 524 -15 700 -82 477
-301 909 -641 1264 -370 385 -848 628 -1399 711 -128 19 -402 27 -535 15z
m142 -137 c3 -21 8 -23 73 -23 65 0 69 1 75 25 6 23 10 25 70 25 45 0 64 -4
64 -12 0 -7 -11 -87 -24 -178 -58 -393 -75 -615 -85 -1102 -4 -208 -9 -380
-12 -382 -2 -2 -48 -6 -102 -8 l-97 -3 0 220 c0 451 -34 977 -86 1328 -21 149
-25 138 54 135 61 -3 67 -5 70 -25z m-196 -33 c74 -491 86 -621 108 -1155 12
-293 13 -485 1 -485 -5 0 -16 -2 -24 -5 -11 -5 -16 23 -26 152 -20 274 -61
704 -77 818 -17 123 -92 468 -130 601 -14 47 -22 89 -19 93 8 7 124 29 145 27
9 -1 17 -17 22 -46z m641 34 c26 -3 49 -9 51 -13 2 -3 -6 -51 -18 -106 -77
-338 -123 -664 -181 -1295 -13 -144 -25 -263 -27 -264 -2 -2 -18 1 -35 6 -32
8 -33 10 -33 66 0 138 31 761 44 897 29 287 36 351 66 528 17 97 30 182 30
188 0 6 12 8 28 5 15 -3 48 -8 75 -12z m-858 -131 c83 -292 101 -365 131 -539
38 -225 57 -376 94 -769 27 -283 30 -255 -38 -290 -80 -41 -210 -173 -246
-249 l-28 -58 -71 6 c-503 47 -1010 119 -1287 182 -259 58 -285 65 -299 73
-17 11 -5 66 55 244 137 410 383 765 728 1051 206 171 526 339 801 421 131 39
127 41 160 -72z m1195 47 c231 -77 462 -198 665 -349 123 -92 345 -314 442
-441 234 -310 404 -720 442 -1067 6 -54 14 -113 17 -131 l5 -33 -178 6 c-466
16 -896 47 -1251 91 -254 31 -304 41 -315 59 -43 78 -193 211 -266 236 -17 6
-31 15 -31 21 0 16 49 460 66 598 18 154 79 542 99 641 8 41 34 152 57 248
l41 173 41 -5 c23 -3 97 -25 166 -47z m-565 -1622 c115 -25 249 -113 323 -213
140 -187 161 -430 54 -628 -153 -283 -483 -392 -772 -255 -68 32 -100 56 -160
117 -118 120 -170 245 -170 410 0 208 91 375 269 492 134 89 285 114 456 77z
m-2270 -172 c336 -75 675 -121 1350 -182 99 -9 182 -18 184 -19 1 -2 -1 -16
-6 -32 -9 -27 -12 -28 -94 -31 -176 -7 -826 28 -1084 59 -102 12 -373 54 -453
70 -53 11 -54 11 -49 42 3 18 9 51 12 75 4 23 12 42 18 42 7 0 62 -11 122 -24z
m2820 -160 c267 -43 822 -84 1373 -102 l212 -7 0 -24 0 -23 -142 0 c-188 1
-828 18 -937 25 -211 15 -487 44 -573 61 -18 4 -30 15 -37 36 -20 56 -25 54
104 34z m-2808 -55 c43 -6 132 -17 198 -26 234 -31 455 -45 873 -57 l422 -12
0 -76 c0 -41 3 -84 6 -96 5 -21 4 -21 -338 -27 -499 -10 -786 -30 -1237 -89
-98 -12 -101 -10 -101 70 0 46 3 55 20 59 18 5 20 14 20 74 0 62 -2 69 -20 69
-18 0 -20 7 -20 63 0 35 2 66 5 69 3 3 26 2 50 -3 25 -5 80 -13 122 -18z
m2878 -80 c290 -33 622 -51 1093 -58 401 -6 422 -7 422 -25 0 -17 -15 -18
-280 -18 -271 0 -280 -1 -280 -20 0 -19 7 -19 280 -13 277 5 280 5 280 -15 0
-18 -8 -21 -62 -26 -35 -3 -385 -13 -778 -22 -393 -9 -738 -18 -765 -21 l-51
-5 0 122 0 121 26 -5 c14 -3 66 -10 115 -15z m1512 -227 c3 -8 2 -19 -3 -23
-5 -5 -193 -14 -418 -20 -635 -19 -799 -30 -1145 -82 -73 -11 -135 -18 -137
-16 -2 2 4 25 13 50 13 37 22 47 39 47 12 0 89 4 171 10 158 10 281 14 993 31
250 6 457 13 459 15 9 9 22 3 28 -12z m-2877 -33 c0 -5 3 -16 6 -24 4 -12 -9
-16 -68 -21 -40 -4 -181 -15 -313 -26 -218 -18 -364 -33 -590 -59 -124 -15
-491 -96 -661 -146 -20 -6 -23 -1 -33 57 -15 86 -14 96 7 102 75 23 481 73
752 91 409 29 900 43 900 26z m2870 -57 c0 -42 -34 -236 -55 -318 -110 -420
-313 -777 -610 -1071 -367 -365 -872 -607 -1357 -650 l-77 -7 4 68 c2 38 7
130 10 204 11 268 25 546 30 605 30 360 54 573 86 770 11 69 12 71 66 109 54
40 110 96 149 149 24 35 32 37 339 76 292 38 441 49 856 65 497 20 559 20 559
0z m-2821 -66 c27 -61 85 -136 148 -188 30 -25 60 -50 67 -57 16 -14 48 -209
76 -463 23 -209 45 -605 56 -1003 l7 -268 -74 6 c-174 16 -435 84 -616 161
-612 260 -1079 762 -1286 1384 -25 74 -48 149 -52 166 l-6 31 78 22 c43 12
107 31 143 41 237 68 517 120 810 150 63 6 214 22 335 35 312 32 292 34 314
-17z m354 -307 c21 -8 25 -18 31 -73 11 -116 26 -509 36 -978 6 -256 13 -502
16 -548 6 -83 6 -84 -18 -80 l-23 3 -7 260 c-19 719 -37 983 -88 1303 -11 67
-20 125 -20 128 0 7 35 -1 73 -15z m453 4 c-11 -29 -45 -302 -60 -480 -29
-340 -66 -982 -66 -1152 0 -47 -2 -53 -20 -53 -11 0 -23 7 -26 15 -9 24 15
907 31 1130 12 170 50 514 58 521 5 4 72 32 81 33 4 1 6 -6 2 -14z m-140 -75
c-42 -322 -76 -933 -76 -1375 0 -202 -2 -235 -15 -235 -13 0 -15 37 -15 275 0
268 0 275 -20 275 -20 0 -20 -7 -20 -275 0 -262 -1 -275 -19 -275 -17 0 -19
11 -25 113 -4 61 -11 373 -16 692 -9 547 -13 681 -26 800 l-5 50 122 0 121 0
-6 -45z"/>
<path d="M2515 4518 c4 -128 9 -236 12 -240 2 -5 24 -8 48 -8 l43 0 6 143 c3
78 7 186 9 240 l2 97 -64 0 -63 0 7 -232z"/>
<path d="M2533 4053 c4 -87 7 -193 7 -235 l0 -78 29 0 29 0 6 188 c4 103 8
207 9 232 l2 45 -44 3 -44 3 6 -158z"/>
<path d="M2553 3449 c3 -127 8 -234 11 -237 17 -16 21 30 24 239 l3 229 -22 0
-22 0 6 -231z"/>
<path d="M1595 4046 c-44 -30 -61 -51 -45 -58 11 -5 119 68 120 80 0 19 -21
13 -75 -22z"/>
<path d="M1309 4001 c-47 -47 -33 -106 42 -177 75 -71 132 -76 178 -17 17 20
21 36 17 58 -10 47 -53 103 -103 136 -60 37 -96 37 -134 0z m132 -58 c62 -56
75 -113 29 -128 -41 -13 -140 73 -140 120 0 55 54 59 111 8z"/>
<path d="M1121 3814 c-35 -29 -49 -81 -31 -114 19 -35 45 -21 45 24 0 30 6 43
27 59 23 17 29 18 44 6 14 -11 16 -29 12 -121 -4 -94 -2 -110 13 -124 17 -15
23 -11 88 57 53 56 67 76 59 86 -17 21 -28 16 -69 -29 l-38 -43 -1 92 c0 87
-1 93 -26 112 -37 29 -85 27 -123 -5z"/>
<path d="M1943 3623 c-23 -15 -31 -43 -14 -43 5 0 19 9 32 19 31 25 14 46 -18
24z"/>
<path d="M1785 3569 c-30 -28 -55 -57 -55 -63 0 -17 100 -107 111 -101 4 3 16
21 25 41 18 38 51 52 82 35 49 -26 30 -90 -36 -121 -38 -18 -43 -50 -8 -50 50
0 115 70 116 123 0 88 -110 132 -170 67 -26 -28 -28 -29 -44 -11 -15 16 -14
19 15 47 43 41 52 59 34 74 -12 10 -24 2 -70 -41z"/>
<path d="M1113 3562 c-48 -72 -55 -90 -41 -98 6 -4 13 -3 15 3 2 6 22 37 44
68 21 31 39 60 39 65 0 24 -28 6 -57 -38z"/>
<path d="M1604 3391 c-39 -24 -61 -73 -48 -109 6 -17 17 -27 29 -27 17 0 20 6
17 35 -4 42 24 73 60 68 22 -3 23 -6 24 -116 1 -91 4 -117 18 -130 15 -15 21
-12 86 53 39 38 70 73 70 77 0 4 -9 12 -19 18 -17 8 -27 3 -65 -37 l-45 -48 6
66 c8 95 -1 136 -37 154 -38 20 -59 19 -96 -4z"/>
<path d="M1530 3225 c-24 -26 -19 -55 6 -34 22 18 35 47 25 53 -4 3 -18 -5
-31 -19z"/>
<path d="M3444 4099 c-7 -12 -7 -12 52 -48 170 -105 393 -333 523 -534 24 -37
47 -67 52 -67 22 0 13 23 -43 105 -143 210 -318 387 -505 513 -69 46 -69 47
-79 31z"/>
<path d="M3175 3629 c-4 -6 -5 -11 -4 -13 2 -1 38 -24 79 -51 83 -55 263 -228
329 -317 24 -32 47 -58 52 -58 57 0 -199 281 -358 393 -88 62 -89 62 -98 46z"/>
<path d="M2455 3025 c-80 -22 -105 -33 -171 -80 -227 -162 -275 -482 -107
-705 178 -238 533 -267 742 -61 95 93 140 185 155 316 9 77 -15 198 -55 277
-34 68 -124 163 -192 203 -101 58 -262 80 -372 50z m201 -26 c145 -26 266
-118 335 -255 l44 -87 0 -116 c0 -115 -1 -119 -37 -192 -45 -91 -91 -146 -163
-194 -91 -60 -157 -77 -278 -73 -96 3 -108 6 -182 42 -360 178 -350 673 17
841 94 43 165 52 264 34z"/>
<path d="M2482 2920 c-92 -19 -196 -97 -248 -186 -14 -23 -31 -74 -39 -113
-29 -136 11 -267 108 -358 68 -64 118 -90 205 -105 177 -30 348 61 424 228 19
41 23 66 23 154 0 93 -3 111 -27 163 -34 72 -116 155 -188 190 -63 31 -182 43
-258 27z m149 -30 c117 -22 209 -93 262 -200 28 -57 32 -74 32 -150 0 -78 -3
-92 -34 -154 -77 -151 -240 -230 -392 -191 -82 20 -137 53 -188 112 -68 77
-85 123 -85 233 0 113 16 157 88 237 50 56 124 98 196 112 62 12 61 12 121 1z"/>
<path d="M2411 2681 c-26 -7 -49 -36 -38 -47 4 -4 18 -2 32 4 35 16 80 15 95
-3 17 -21 3 -54 -28 -61 -46 -10 -53 -14 -47 -24 3 -5 15 -10 25 -10 10 0 32
-11 47 -24 23 -21 26 -28 17 -43 -9 -15 -25 -18 -83 -18 -74 0 -91 -11 -50
-32 49 -26 150 -9 169 27 15 28 12 61 -7 82 -14 16 -15 23 -5 38 45 73 -30
138 -127 111z"/>
<path d="M2681 2674 c-30 -21 -51 -73 -51 -124 0 -117 91 -180 160 -112 98 99
0 312 -109 236z m89 -50 c13 -33 13 -130 0 -155 -7 -12 -21 -19 -41 -19 -25 0
-33 6 -45 35 -7 19 -14 48 -14 65 0 17 7 46 14 65 13 29 20 35 46 35 24 0 33
-6 40 -26z"/>
<path d="M370 2550 l0 -60 138 1 c75 1 182 4 237 8 l100 6 0 45 0 45 -115 6
c-63 4 -170 7 -237 8 l-123 1 0 -60z"/>
<path d="M910 2550 l0 -40 78 0 c42 0 148 3 235 7 l157 6 0 27 0 27 -172 6
c-95 4 -201 7 -235 7 l-63 0 0 -40z"/>
<path d="M1440 2550 l0 -22 229 3 c212 4 255 8 238 26 -4 3 -110 8 -237 11
l-230 5 0 -23z"/>
<path d="M3250 2551 l0 -31 225 0 c219 0 225 0 225 20 0 11 -6 22 -12 25 -7 2
-109 6 -225 10 l-213 6 0 -30z"/>
<path d="M3790 2543 c0 -19 9 -20 137 -26 223 -11 283 -9 290 8 3 9 4 18 2 20
-3 2 -100 7 -217 11 -208 7 -212 7 -212 -13z"/>
<path d="M3379 1941 c-47 -48 -33 -105 44 -180 85 -82 187 -64 187 34 0 58
-57 131 -127 161 -48 21 -71 17 -104 -15z m132 -58 c62 -56 75 -113 29 -128
-60 -19 -174 117 -133 158 18 19 65 5 104 -30z"/>
<path d="M3598 1935 c-22 -29 -22 -35 -5 -35 16 0 47 32 47 48 0 20 -24 13
-42 -13z"/>
<path d="M3210 1777 c-32 -16 -72 -76 -68 -102 5 -32 40 -25 50 10 8 33 32 55
59 55 25 0 34 -37 15 -59 -31 -34 -11 -77 22 -48 40 33 92 26 92 -13 0 -19
-51 -77 -84 -96 -22 -12 -14 -34 12 -34 26 0 93 59 108 96 22 52 -10 108 -66
116 -17 2 -26 10 -28 24 -6 46 -68 74 -112 51z"/>
<path d="M4023 1615 c-44 -66 -52 -90 -30 -83 13 4 97 124 97 139 0 26 -30 1
-67 -56z"/>
<path d="M3801 1526 l-52 -53 50 -52 c27 -28 55 -51 61 -51 5 0 18 15 27 34
22 48 54 61 87 35 14 -11 26 -27 26 -35 0 -26 -32 -65 -66 -79 -36 -15 -45
-39 -18 -49 22 -8 66 17 103 59 42 49 42 86 -3 131 -45 45 -91 46 -139 4 -30
-26 -36 -28 -47 -15 -10 13 -9 19 6 38 11 12 27 28 37 35 23 17 22 52 -1 52
-10 0 -41 -24 -71 -54z"/>
<path d="M3187 1542 c-21 -22 -21 -32 -4 -32 14 0 47 31 47 43 0 14 -27 7 -43
-11z"/>
<path d="M3613 1335 c-28 -28 -34 -41 -31 -67 4 -43 29 -43 40 -1 11 42 51 71
73 53 19 -16 19 -44 0 -60 -37 -31 -3 -62 39 -35 34 23 70 16 74 -13 5 -32
-20 -66 -62 -86 -39 -18 -43 -27 -22 -45 19 -16 63 6 105 54 42 49 43 94 0
129 -17 14 -39 26 -50 26 -10 0 -19 7 -19 15 0 9 -11 27 -25 40 -36 37 -79 33
-122 -10z"/>
<path d="M3535 1124 c-47 -32 -62 -53 -40 -55 16 -2 115 65 112 75 -6 19 -23
14 -72 -20z"/>
<path d="M1521 1961 c-18 -11 7 -50 105 -165 99 -115 317 -293 347 -283 27 9
12 30 -55 75 -95 64 -238 200 -318 301 -35 45 -64 81 -64 81 -1 0 -7 -4 -15
-9z"/>
<path d="M1080 1700 c-20 -13 -1 -47 103 -187 127 -171 338 -370 482 -454 31
-18 38 -20 46 -8 13 21 13 21 -48 59 -174 108 -389 327 -522 533 -24 37 -44
67 -45 67 0 0 -8 -5 -16 -10z"/>
<path d="M2540 1645 l0 -225 25 0 c24 0 25 3 25 58 0 33 3 134 7 225 l6 167
-31 0 -32 0 0 -225z"/>
<path d="M2538 1170 c-4 -290 -6 -265 20 -268 l22 -3 0 215 c0 209 -1 216 -20
216 -19 0 -20 -7 -22 -160z"/>
</g>
</svg>
